<mxfile host="Electron" agent="Mozilla/5.0 (Macintosh; Intel Mac OS X 10_15_7) AppleWebKit/537.36 (KHTML, like Gecko) draw.io/27.0.2 Chrome/134.0.6998.205 Electron/35.3.0 Safari/537.36" version="27.0.2">
  <diagram name="Page-1" id="CVAJOGMBzAN6Xmwgx2wW">
    <mxGraphModel dx="566" dy="1046" grid="1" gridSize="10" guides="1" tooltips="1" connect="1" arrows="1" fold="1" page="1" pageScale="1" pageWidth="850" pageHeight="1100" math="0" shadow="0">
      <root>
        <mxCell id="0" />
        <mxCell id="1" parent="0" />
        <mxCell id="wFCYlDDrSTioFFBtaSXR-1" value="&lt;b&gt;T4&lt;/b&gt;" style="ellipse;whiteSpace=wrap;html=1;" vertex="1" parent="1">
          <mxGeometry x="440" y="110" width="40" height="40" as="geometry" />
        </mxCell>
        <mxCell id="wFCYlDDrSTioFFBtaSXR-2" value="&lt;font style=&quot;font-size: 18px;&quot;&gt;T1&lt;span style=&quot;white-space: pre;&quot;&gt;&#x9;&lt;/span&gt;T2&lt;span style=&quot;white-space: pre;&quot;&gt;&#x9;&lt;/span&gt;T3&lt;span style=&quot;white-space: pre;&quot;&gt;&#x9;&lt;/span&gt;T4&lt;span style=&quot;white-space: pre;&quot;&gt;&#x9;&lt;/span&gt;T5&lt;span style=&quot;white-space: pre;&quot;&gt;&#x9;&lt;/span&gt;&lt;/font&gt;" style="text;html=1;align=center;verticalAlign=middle;whiteSpace=wrap;rounded=0;" vertex="1" parent="1">
          <mxGeometry x="10" y="720" width="320" height="30" as="geometry" />
        </mxCell>
        <mxCell id="wFCYlDDrSTioFFBtaSXR-3" value="Ra" style="text;html=1;align=center;verticalAlign=middle;whiteSpace=wrap;rounded=0;perimeterSpacing=0;fillColor=none;" vertex="1" parent="1">
          <mxGeometry x="90" y="750" width="60" height="30" as="geometry" />
        </mxCell>
        <mxCell id="wFCYlDDrSTioFFBtaSXR-4" value="Ra" style="text;html=1;align=center;verticalAlign=middle;whiteSpace=wrap;rounded=0;perimeterSpacing=0;fillColor=none;" vertex="1" parent="1">
          <mxGeometry x="50" y="770" width="60" height="30" as="geometry" />
        </mxCell>
        <mxCell id="wFCYlDDrSTioFFBtaSXR-5" value="Wb" style="text;html=1;align=center;verticalAlign=middle;whiteSpace=wrap;rounded=0;perimeterSpacing=0;fillColor=none;" vertex="1" parent="1">
          <mxGeometry x="90" y="790" width="60" height="30" as="geometry" />
        </mxCell>
        <mxCell id="wFCYlDDrSTioFFBtaSXR-6" value="Wb" style="text;html=1;align=center;verticalAlign=middle;whiteSpace=wrap;rounded=0;perimeterSpacing=0;fillColor=none;" vertex="1" parent="1">
          <mxGeometry x="50" y="810" width="60" height="30" as="geometry" />
        </mxCell>
        <mxCell id="wFCYlDDrSTioFFBtaSXR-7" value="Wc" style="text;html=1;align=center;verticalAlign=middle;whiteSpace=wrap;rounded=0;perimeterSpacing=0;fillColor=none;" vertex="1" parent="1">
          <mxGeometry x="50" y="830" width="60" height="30" as="geometry" />
        </mxCell>
        <mxCell id="wFCYlDDrSTioFFBtaSXR-8" value="Wc" style="text;html=1;align=center;verticalAlign=middle;whiteSpace=wrap;rounded=0;perimeterSpacing=0;fillColor=none;" vertex="1" parent="1">
          <mxGeometry x="90" y="850" width="60" height="30" as="geometry" />
        </mxCell>
        <mxCell id="wFCYlDDrSTioFFBtaSXR-9" value="Ra" style="text;html=1;align=center;verticalAlign=middle;whiteSpace=wrap;rounded=0;perimeterSpacing=0;fillColor=none;" vertex="1" parent="1">
          <mxGeometry x="130" y="870" width="60" height="30" as="geometry" />
        </mxCell>
        <mxCell id="wFCYlDDrSTioFFBtaSXR-10" value="Rb" style="text;html=1;align=center;verticalAlign=middle;whiteSpace=wrap;rounded=0;perimeterSpacing=0;fillColor=none;" vertex="1" parent="1">
          <mxGeometry x="170" y="890" width="60" height="30" as="geometry" />
        </mxCell>
        <mxCell id="wFCYlDDrSTioFFBtaSXR-11" value="Wc" style="text;html=1;align=center;verticalAlign=middle;whiteSpace=wrap;rounded=0;perimeterSpacing=0;fillColor=none;" vertex="1" parent="1">
          <mxGeometry x="170" y="910" width="60" height="30" as="geometry" />
        </mxCell>
        <mxCell id="wFCYlDDrSTioFFBtaSXR-12" value="Wd" style="text;html=1;align=center;verticalAlign=middle;whiteSpace=wrap;rounded=0;perimeterSpacing=0;fillColor=none;" vertex="1" parent="1">
          <mxGeometry x="170" y="930" width="60" height="30" as="geometry" />
        </mxCell>
        <mxCell id="wFCYlDDrSTioFFBtaSXR-19" value="&lt;b&gt;T2&lt;/b&gt;" style="ellipse;whiteSpace=wrap;html=1;" vertex="1" parent="1">
          <mxGeometry x="340" y="190" width="40" height="40" as="geometry" />
        </mxCell>
        <mxCell id="wFCYlDDrSTioFFBtaSXR-20" value="&lt;b&gt;T3&lt;/b&gt;" style="ellipse;whiteSpace=wrap;html=1;" vertex="1" parent="1">
          <mxGeometry x="420" y="190" width="40" height="40" as="geometry" />
        </mxCell>
        <mxCell id="wFCYlDDrSTioFFBtaSXR-21" value="&lt;b&gt;T1&lt;/b&gt;" style="ellipse;whiteSpace=wrap;html=1;" vertex="1" parent="1">
          <mxGeometry x="320" y="110" width="40" height="40" as="geometry" />
        </mxCell>
        <mxCell id="wFCYlDDrSTioFFBtaSXR-22" value="&lt;b&gt;T5&lt;/b&gt;" style="ellipse;whiteSpace=wrap;html=1;" vertex="1" parent="1">
          <mxGeometry x="380" y="60" width="40" height="40" as="geometry" />
        </mxCell>
        <mxCell id="wFCYlDDrSTioFFBtaSXR-23" value="" style="endArrow=classic;html=1;rounded=0;exitX=0.5;exitY=1;exitDx=0;exitDy=0;entryX=1;entryY=0;entryDx=0;entryDy=0;" edge="1" parent="1" source="wFCYlDDrSTioFFBtaSXR-22" target="wFCYlDDrSTioFFBtaSXR-19">
          <mxGeometry width="50" height="50" relative="1" as="geometry">
            <mxPoint x="330" y="140" as="sourcePoint" />
            <mxPoint x="410" y="170" as="targetPoint" />
          </mxGeometry>
        </mxCell>
        <mxCell id="wFCYlDDrSTioFFBtaSXR-24" value="" style="endArrow=classic;html=1;rounded=0;exitX=1;exitY=0.5;exitDx=0;exitDy=0;" edge="1" parent="1" source="wFCYlDDrSTioFFBtaSXR-19" target="wFCYlDDrSTioFFBtaSXR-1">
          <mxGeometry width="50" height="50" relative="1" as="geometry">
            <mxPoint x="260" y="50" as="sourcePoint" />
            <mxPoint x="310" as="targetPoint" />
          </mxGeometry>
        </mxCell>
        <mxCell id="wFCYlDDrSTioFFBtaSXR-25" value="" style="endArrow=classic;html=1;rounded=0;entryX=0.5;entryY=0;entryDx=0;entryDy=0;exitX=0.5;exitY=1;exitDx=0;exitDy=0;" edge="1" parent="1" source="wFCYlDDrSTioFFBtaSXR-21" target="wFCYlDDrSTioFFBtaSXR-19">
          <mxGeometry width="50" height="50" relative="1" as="geometry">
            <mxPoint x="210" y="-20" as="sourcePoint" />
            <mxPoint x="260" y="-70" as="targetPoint" />
          </mxGeometry>
        </mxCell>
        <mxCell id="wFCYlDDrSTioFFBtaSXR-26" value="" style="endArrow=classic;html=1;rounded=0;entryX=0;entryY=0.5;entryDx=0;entryDy=0;exitX=1;exitY=0.5;exitDx=0;exitDy=0;" edge="1" parent="1" source="wFCYlDDrSTioFFBtaSXR-21" target="wFCYlDDrSTioFFBtaSXR-1">
          <mxGeometry width="50" height="50" relative="1" as="geometry">
            <mxPoint x="300" y="60" as="sourcePoint" />
            <mxPoint x="350" y="10" as="targetPoint" />
          </mxGeometry>
        </mxCell>
        <mxCell id="wFCYlDDrSTioFFBtaSXR-27" value="" style="endArrow=classic;html=1;rounded=0;exitX=0.5;exitY=0;exitDx=0;exitDy=0;entryX=0.5;entryY=1;entryDx=0;entryDy=0;" edge="1" parent="1" source="wFCYlDDrSTioFFBtaSXR-20" target="wFCYlDDrSTioFFBtaSXR-1">
          <mxGeometry width="50" height="50" relative="1" as="geometry">
            <mxPoint x="480" y="200" as="sourcePoint" />
            <mxPoint x="530" y="150" as="targetPoint" />
          </mxGeometry>
        </mxCell>
        <mxCell id="wFCYlDDrSTioFFBtaSXR-29" value="" style="endArrow=classic;html=1;rounded=0;entryX=0.5;entryY=1;entryDx=0;entryDy=0;" edge="1" parent="1" target="wFCYlDDrSTioFFBtaSXR-22">
          <mxGeometry width="50" height="50" relative="1" as="geometry">
            <mxPoint x="440" y="190" as="sourcePoint" />
            <mxPoint x="310" y="220" as="targetPoint" />
          </mxGeometry>
        </mxCell>
        <mxCell id="wFCYlDDrSTioFFBtaSXR-32" value="&lt;b&gt;T4&lt;/b&gt;" style="ellipse;whiteSpace=wrap;html=1;" vertex="1" parent="1">
          <mxGeometry x="620" y="240" width="40" height="40" as="geometry" />
        </mxCell>
        <mxCell id="wFCYlDDrSTioFFBtaSXR-33" value="&lt;b&gt;T2&lt;/b&gt;" style="ellipse;whiteSpace=wrap;html=1;" vertex="1" parent="1">
          <mxGeometry x="620" y="190" width="40" height="40" as="geometry" />
        </mxCell>
        <mxCell id="wFCYlDDrSTioFFBtaSXR-34" value="&lt;b&gt;T3&lt;/b&gt;" style="ellipse;whiteSpace=wrap;html=1;" vertex="1" parent="1">
          <mxGeometry x="620" y="20" width="40" height="40" as="geometry" />
        </mxCell>
        <mxCell id="wFCYlDDrSTioFFBtaSXR-37" value="" style="endArrow=classic;html=1;rounded=0;exitX=0.5;exitY=1;exitDx=0;exitDy=0;entryX=1;entryY=0;entryDx=0;entryDy=0;" edge="1" parent="1" source="wFCYlDDrSTioFFBtaSXR-36" target="wFCYlDDrSTioFFBtaSXR-33">
          <mxGeometry width="50" height="50" relative="1" as="geometry">
            <mxPoint x="520" y="205" as="sourcePoint" />
            <mxPoint x="600" y="235" as="targetPoint" />
            <Array as="points">
              <mxPoint x="680" y="160" />
            </Array>
          </mxGeometry>
        </mxCell>
        <mxCell id="wFCYlDDrSTioFFBtaSXR-38" value="" style="endArrow=classic;html=1;rounded=0;exitX=1;exitY=0.5;exitDx=0;exitDy=0;" edge="1" parent="1" source="wFCYlDDrSTioFFBtaSXR-33" target="wFCYlDDrSTioFFBtaSXR-32">
          <mxGeometry width="50" height="50" relative="1" as="geometry">
            <mxPoint x="450" y="115" as="sourcePoint" />
            <mxPoint x="500" y="65" as="targetPoint" />
            <Array as="points">
              <mxPoint x="680" y="230" />
            </Array>
          </mxGeometry>
        </mxCell>
        <mxCell id="wFCYlDDrSTioFFBtaSXR-39" value="" style="endArrow=classic;html=1;rounded=0;entryX=0;entryY=0.5;entryDx=0;entryDy=0;exitX=0;exitY=1;exitDx=0;exitDy=0;" edge="1" parent="1" source="wFCYlDDrSTioFFBtaSXR-35" target="wFCYlDDrSTioFFBtaSXR-33">
          <mxGeometry width="50" height="50" relative="1" as="geometry">
            <mxPoint x="400" y="45" as="sourcePoint" />
            <mxPoint x="450" y="-5" as="targetPoint" />
            <Array as="points">
              <mxPoint x="610" y="190" />
            </Array>
          </mxGeometry>
        </mxCell>
        <mxCell id="wFCYlDDrSTioFFBtaSXR-41" value="" style="endArrow=classic;html=1;rounded=0;entryX=0;entryY=0.5;entryDx=0;entryDy=0;" edge="1" parent="1" source="wFCYlDDrSTioFFBtaSXR-35" target="wFCYlDDrSTioFFBtaSXR-32">
          <mxGeometry width="50" height="50" relative="1" as="geometry">
            <mxPoint x="640" y="60" as="sourcePoint" />
            <mxPoint x="720" y="215" as="targetPoint" />
            <Array as="points">
              <mxPoint x="580" y="200" />
            </Array>
          </mxGeometry>
        </mxCell>
        <mxCell id="wFCYlDDrSTioFFBtaSXR-43" value="" style="endArrow=classic;html=1;rounded=0;entryX=0.5;entryY=0;entryDx=0;entryDy=0;" edge="1" parent="1" target="wFCYlDDrSTioFFBtaSXR-36">
          <mxGeometry width="50" height="50" relative="1" as="geometry">
            <mxPoint x="640" y="60" as="sourcePoint" />
            <mxPoint x="650" y="175" as="targetPoint" />
            <Array as="points">
              <mxPoint x="630" y="70" />
            </Array>
          </mxGeometry>
        </mxCell>
        <mxCell id="wFCYlDDrSTioFFBtaSXR-36" value="&lt;b&gt;T5&lt;/b&gt;" style="ellipse;whiteSpace=wrap;html=1;" vertex="1" parent="1">
          <mxGeometry x="620" y="85" width="40" height="40" as="geometry" />
        </mxCell>
        <mxCell id="wFCYlDDrSTioFFBtaSXR-47" value="" style="endArrow=classic;html=1;rounded=0;exitX=0;exitY=0.5;exitDx=0;exitDy=0;entryX=0;entryY=1;entryDx=0;entryDy=0;" edge="1" parent="1" source="wFCYlDDrSTioFFBtaSXR-34" target="wFCYlDDrSTioFFBtaSXR-32">
          <mxGeometry width="50" height="50" relative="1" as="geometry">
            <mxPoint x="560" y="80" as="sourcePoint" />
            <mxPoint x="626" y="246" as="targetPoint" />
            <Array as="points">
              <mxPoint x="550" y="210" />
            </Array>
          </mxGeometry>
        </mxCell>
        <mxCell id="wFCYlDDrSTioFFBtaSXR-35" value="&lt;b&gt;T1&lt;/b&gt;" style="ellipse;whiteSpace=wrap;html=1;" vertex="1" parent="1">
          <mxGeometry x="620" y="140" width="40" height="40" as="geometry" />
        </mxCell>
        <mxCell id="wFCYlDDrSTioFFBtaSXR-50" value="&lt;b&gt;T4&lt;/b&gt;" style="ellipse;whiteSpace=wrap;html=1;" vertex="1" parent="1">
          <mxGeometry x="250" y="570" width="40" height="40" as="geometry" />
        </mxCell>
        <mxCell id="wFCYlDDrSTioFFBtaSXR-51" value="&lt;b&gt;T2&lt;/b&gt;" style="ellipse;whiteSpace=wrap;html=1;" vertex="1" parent="1">
          <mxGeometry x="250" y="520" width="40" height="40" as="geometry" />
        </mxCell>
        <mxCell id="wFCYlDDrSTioFFBtaSXR-52" value="&lt;b&gt;T3&lt;/b&gt;" style="ellipse;whiteSpace=wrap;html=1;" vertex="1" parent="1">
          <mxGeometry x="250" y="350" width="40" height="40" as="geometry" />
        </mxCell>
        <mxCell id="wFCYlDDrSTioFFBtaSXR-53" value="" style="endArrow=classic;html=1;rounded=0;exitX=0.5;exitY=1;exitDx=0;exitDy=0;entryX=1;entryY=0;entryDx=0;entryDy=0;" edge="1" parent="1" source="wFCYlDDrSTioFFBtaSXR-58" target="wFCYlDDrSTioFFBtaSXR-51">
          <mxGeometry width="50" height="50" relative="1" as="geometry">
            <mxPoint x="150" y="535" as="sourcePoint" />
            <mxPoint x="230" y="565" as="targetPoint" />
            <Array as="points">
              <mxPoint x="310" y="490" />
            </Array>
          </mxGeometry>
        </mxCell>
        <mxCell id="wFCYlDDrSTioFFBtaSXR-54" value="" style="endArrow=classic;html=1;rounded=0;exitX=1;exitY=0.5;exitDx=0;exitDy=0;" edge="1" parent="1" source="wFCYlDDrSTioFFBtaSXR-51" target="wFCYlDDrSTioFFBtaSXR-50">
          <mxGeometry width="50" height="50" relative="1" as="geometry">
            <mxPoint x="80" y="445" as="sourcePoint" />
            <mxPoint x="130" y="395" as="targetPoint" />
            <Array as="points">
              <mxPoint x="310" y="560" />
            </Array>
          </mxGeometry>
        </mxCell>
        <mxCell id="wFCYlDDrSTioFFBtaSXR-55" value="" style="endArrow=classic;html=1;rounded=0;entryX=0;entryY=0.5;entryDx=0;entryDy=0;exitX=0;exitY=1;exitDx=0;exitDy=0;" edge="1" parent="1" source="wFCYlDDrSTioFFBtaSXR-60" target="wFCYlDDrSTioFFBtaSXR-51">
          <mxGeometry width="50" height="50" relative="1" as="geometry">
            <mxPoint x="30" y="375" as="sourcePoint" />
            <mxPoint x="80" y="325" as="targetPoint" />
            <Array as="points">
              <mxPoint x="240" y="520" />
            </Array>
          </mxGeometry>
        </mxCell>
        <mxCell id="wFCYlDDrSTioFFBtaSXR-56" value="" style="endArrow=classic;html=1;rounded=0;entryX=0;entryY=0.5;entryDx=0;entryDy=0;" edge="1" parent="1" source="wFCYlDDrSTioFFBtaSXR-60" target="wFCYlDDrSTioFFBtaSXR-50">
          <mxGeometry width="50" height="50" relative="1" as="geometry">
            <mxPoint x="270" y="390" as="sourcePoint" />
            <mxPoint x="350" y="545" as="targetPoint" />
            <Array as="points">
              <mxPoint x="210" y="530" />
            </Array>
          </mxGeometry>
        </mxCell>
        <mxCell id="wFCYlDDrSTioFFBtaSXR-57" value="" style="endArrow=classic;html=1;rounded=0;entryX=0.5;entryY=0;entryDx=0;entryDy=0;" edge="1" parent="1" target="wFCYlDDrSTioFFBtaSXR-58">
          <mxGeometry width="50" height="50" relative="1" as="geometry">
            <mxPoint x="270" y="390" as="sourcePoint" />
            <mxPoint x="280" y="505" as="targetPoint" />
            <Array as="points">
              <mxPoint x="260" y="400" />
            </Array>
          </mxGeometry>
        </mxCell>
        <mxCell id="wFCYlDDrSTioFFBtaSXR-58" value="&lt;b&gt;T5&lt;/b&gt;" style="ellipse;whiteSpace=wrap;html=1;" vertex="1" parent="1">
          <mxGeometry x="250" y="415" width="40" height="40" as="geometry" />
        </mxCell>
        <mxCell id="wFCYlDDrSTioFFBtaSXR-59" value="" style="endArrow=classic;html=1;rounded=0;exitX=0;exitY=0.5;exitDx=0;exitDy=0;entryX=0;entryY=1;entryDx=0;entryDy=0;" edge="1" parent="1" source="wFCYlDDrSTioFFBtaSXR-52" target="wFCYlDDrSTioFFBtaSXR-50">
          <mxGeometry width="50" height="50" relative="1" as="geometry">
            <mxPoint x="190" y="410" as="sourcePoint" />
            <mxPoint x="256" y="576" as="targetPoint" />
            <Array as="points">
              <mxPoint x="180" y="540" />
            </Array>
          </mxGeometry>
        </mxCell>
        <mxCell id="wFCYlDDrSTioFFBtaSXR-60" value="&lt;b&gt;T1&lt;/b&gt;" style="ellipse;whiteSpace=wrap;html=1;" vertex="1" parent="1">
          <mxGeometry x="250" y="470" width="40" height="40" as="geometry" />
        </mxCell>
        <mxCell id="wFCYlDDrSTioFFBtaSXR-61" value="&lt;b&gt;T4&lt;/b&gt;" style="ellipse;whiteSpace=wrap;html=1;" vertex="1" parent="1">
          <mxGeometry x="390" y="570" width="40" height="40" as="geometry" />
        </mxCell>
        <mxCell id="wFCYlDDrSTioFFBtaSXR-62" value="&lt;b&gt;T2&lt;/b&gt;" style="ellipse;whiteSpace=wrap;html=1;" vertex="1" parent="1">
          <mxGeometry x="390" y="520" width="40" height="40" as="geometry" />
        </mxCell>
        <mxCell id="wFCYlDDrSTioFFBtaSXR-63" value="&lt;b&gt;T3&lt;/b&gt;" style="ellipse;whiteSpace=wrap;html=1;" vertex="1" parent="1">
          <mxGeometry x="390" y="400" width="40" height="40" as="geometry" />
        </mxCell>
        <mxCell id="wFCYlDDrSTioFFBtaSXR-64" value="" style="endArrow=classic;html=1;rounded=0;exitX=1;exitY=0.5;exitDx=0;exitDy=0;entryX=1;entryY=0;entryDx=0;entryDy=0;" edge="1" parent="1" source="wFCYlDDrSTioFFBtaSXR-69" target="wFCYlDDrSTioFFBtaSXR-62">
          <mxGeometry width="50" height="50" relative="1" as="geometry">
            <mxPoint x="290" y="535" as="sourcePoint" />
            <mxPoint x="370" y="565" as="targetPoint" />
            <Array as="points">
              <mxPoint x="440" y="510" />
            </Array>
          </mxGeometry>
        </mxCell>
        <mxCell id="wFCYlDDrSTioFFBtaSXR-65" value="" style="endArrow=classic;html=1;rounded=0;exitX=1;exitY=0.5;exitDx=0;exitDy=0;" edge="1" parent="1" source="wFCYlDDrSTioFFBtaSXR-62" target="wFCYlDDrSTioFFBtaSXR-61">
          <mxGeometry width="50" height="50" relative="1" as="geometry">
            <mxPoint x="220" y="445" as="sourcePoint" />
            <mxPoint x="270" y="395" as="targetPoint" />
            <Array as="points">
              <mxPoint x="450" y="560" />
            </Array>
          </mxGeometry>
        </mxCell>
        <mxCell id="wFCYlDDrSTioFFBtaSXR-66" value="" style="endArrow=classic;html=1;rounded=0;entryX=1;entryY=0.5;entryDx=0;entryDy=0;exitX=1;exitY=1;exitDx=0;exitDy=0;" edge="1" parent="1" source="wFCYlDDrSTioFFBtaSXR-71" target="wFCYlDDrSTioFFBtaSXR-62">
          <mxGeometry width="50" height="50" relative="1" as="geometry">
            <mxPoint x="170" y="375" as="sourcePoint" />
            <mxPoint x="220" y="325" as="targetPoint" />
            <Array as="points">
              <mxPoint x="500" y="490" />
            </Array>
          </mxGeometry>
        </mxCell>
        <mxCell id="wFCYlDDrSTioFFBtaSXR-67" value="" style="endArrow=classic;html=1;rounded=0;entryX=1;entryY=0.5;entryDx=0;entryDy=0;exitX=1;exitY=0.5;exitDx=0;exitDy=0;" edge="1" parent="1" source="wFCYlDDrSTioFFBtaSXR-71" target="wFCYlDDrSTioFFBtaSXR-61">
          <mxGeometry width="50" height="50" relative="1" as="geometry">
            <mxPoint x="410" y="390" as="sourcePoint" />
            <mxPoint x="490" y="545" as="targetPoint" />
            <Array as="points">
              <mxPoint x="520" y="490" />
            </Array>
          </mxGeometry>
        </mxCell>
        <mxCell id="wFCYlDDrSTioFFBtaSXR-68" value="" style="endArrow=classic;html=1;rounded=0;entryX=0.5;entryY=0;entryDx=0;entryDy=0;" edge="1" parent="1" target="wFCYlDDrSTioFFBtaSXR-69">
          <mxGeometry width="50" height="50" relative="1" as="geometry">
            <mxPoint x="410" y="440" as="sourcePoint" />
            <mxPoint x="420" y="555" as="targetPoint" />
            <Array as="points">
              <mxPoint x="400" y="450" />
            </Array>
          </mxGeometry>
        </mxCell>
        <mxCell id="wFCYlDDrSTioFFBtaSXR-69" value="&lt;b&gt;T5&lt;/b&gt;" style="ellipse;whiteSpace=wrap;html=1;" vertex="1" parent="1">
          <mxGeometry x="390" y="465" width="40" height="40" as="geometry" />
        </mxCell>
        <mxCell id="wFCYlDDrSTioFFBtaSXR-70" value="" style="endArrow=classic;html=1;rounded=0;exitX=0;exitY=0.5;exitDx=0;exitDy=0;entryX=0;entryY=1;entryDx=0;entryDy=0;" edge="1" parent="1" source="wFCYlDDrSTioFFBtaSXR-63" target="wFCYlDDrSTioFFBtaSXR-61">
          <mxGeometry width="50" height="50" relative="1" as="geometry">
            <mxPoint x="330" y="410" as="sourcePoint" />
            <mxPoint x="396" y="576" as="targetPoint" />
            <Array as="points">
              <mxPoint x="320" y="540" />
            </Array>
          </mxGeometry>
        </mxCell>
        <mxCell id="wFCYlDDrSTioFFBtaSXR-71" value="&lt;b&gt;T1&lt;/b&gt;" style="ellipse;whiteSpace=wrap;html=1;" vertex="1" parent="1">
          <mxGeometry x="390" y="350" width="40" height="40" as="geometry" />
        </mxCell>
        <mxCell id="wFCYlDDrSTioFFBtaSXR-83" value="&lt;b&gt;T4&lt;/b&gt;" style="ellipse;whiteSpace=wrap;html=1;" vertex="1" parent="1">
          <mxGeometry x="590" y="570" width="40" height="40" as="geometry" />
        </mxCell>
        <mxCell id="wFCYlDDrSTioFFBtaSXR-84" value="&lt;b&gt;T2&lt;/b&gt;" style="ellipse;whiteSpace=wrap;html=1;" vertex="1" parent="1">
          <mxGeometry x="590" y="520" width="40" height="40" as="geometry" />
        </mxCell>
        <mxCell id="wFCYlDDrSTioFFBtaSXR-85" value="&lt;b&gt;T3&lt;/b&gt;" style="ellipse;whiteSpace=wrap;html=1;" vertex="1" parent="1">
          <mxGeometry x="590" y="350" width="40" height="40" as="geometry" />
        </mxCell>
        <mxCell id="wFCYlDDrSTioFFBtaSXR-86" value="" style="endArrow=classic;html=1;rounded=0;exitX=1;exitY=0.5;exitDx=0;exitDy=0;entryX=1;entryY=0;entryDx=0;entryDy=0;" edge="1" parent="1" source="wFCYlDDrSTioFFBtaSXR-91" target="wFCYlDDrSTioFFBtaSXR-84">
          <mxGeometry width="50" height="50" relative="1" as="geometry">
            <mxPoint x="490" y="535" as="sourcePoint" />
            <mxPoint x="570" y="565" as="targetPoint" />
            <Array as="points">
              <mxPoint x="640" y="510" />
            </Array>
          </mxGeometry>
        </mxCell>
        <mxCell id="wFCYlDDrSTioFFBtaSXR-87" value="" style="endArrow=classic;html=1;rounded=0;exitX=1;exitY=0.5;exitDx=0;exitDy=0;" edge="1" parent="1" source="wFCYlDDrSTioFFBtaSXR-84" target="wFCYlDDrSTioFFBtaSXR-83">
          <mxGeometry width="50" height="50" relative="1" as="geometry">
            <mxPoint x="420" y="445" as="sourcePoint" />
            <mxPoint x="470" y="395" as="targetPoint" />
            <Array as="points">
              <mxPoint x="650" y="560" />
            </Array>
          </mxGeometry>
        </mxCell>
        <mxCell id="wFCYlDDrSTioFFBtaSXR-88" value="" style="endArrow=classic;html=1;rounded=0;entryX=1;entryY=0.5;entryDx=0;entryDy=0;exitX=1;exitY=1;exitDx=0;exitDy=0;" edge="1" parent="1" source="wFCYlDDrSTioFFBtaSXR-93" target="wFCYlDDrSTioFFBtaSXR-84">
          <mxGeometry width="50" height="50" relative="1" as="geometry">
            <mxPoint x="370" y="375" as="sourcePoint" />
            <mxPoint x="420" y="325" as="targetPoint" />
            <Array as="points">
              <mxPoint x="700" y="490" />
            </Array>
          </mxGeometry>
        </mxCell>
        <mxCell id="wFCYlDDrSTioFFBtaSXR-89" value="" style="endArrow=classic;html=1;rounded=0;entryX=1;entryY=0.5;entryDx=0;entryDy=0;exitX=1;exitY=0.5;exitDx=0;exitDy=0;" edge="1" parent="1" source="wFCYlDDrSTioFFBtaSXR-93" target="wFCYlDDrSTioFFBtaSXR-83">
          <mxGeometry width="50" height="50" relative="1" as="geometry">
            <mxPoint x="610" y="390" as="sourcePoint" />
            <mxPoint x="690" y="545" as="targetPoint" />
            <Array as="points">
              <mxPoint x="720" y="490" />
            </Array>
          </mxGeometry>
        </mxCell>
        <mxCell id="wFCYlDDrSTioFFBtaSXR-90" value="" style="endArrow=classic;html=1;rounded=0;entryX=0.5;entryY=0;entryDx=0;entryDy=0;exitX=0;exitY=1;exitDx=0;exitDy=0;" edge="1" parent="1" target="wFCYlDDrSTioFFBtaSXR-91" source="wFCYlDDrSTioFFBtaSXR-85">
          <mxGeometry width="50" height="50" relative="1" as="geometry">
            <mxPoint x="610" y="440" as="sourcePoint" />
            <mxPoint x="620" y="555" as="targetPoint" />
            <Array as="points">
              <mxPoint x="570" y="440" />
            </Array>
          </mxGeometry>
        </mxCell>
        <mxCell id="wFCYlDDrSTioFFBtaSXR-91" value="&lt;b&gt;T5&lt;/b&gt;" style="ellipse;whiteSpace=wrap;html=1;" vertex="1" parent="1">
          <mxGeometry x="590" y="465" width="40" height="40" as="geometry" />
        </mxCell>
        <mxCell id="wFCYlDDrSTioFFBtaSXR-92" value="" style="endArrow=classic;html=1;rounded=0;exitX=0;exitY=0.5;exitDx=0;exitDy=0;entryX=0;entryY=1;entryDx=0;entryDy=0;" edge="1" parent="1" source="wFCYlDDrSTioFFBtaSXR-85" target="wFCYlDDrSTioFFBtaSXR-83">
          <mxGeometry width="50" height="50" relative="1" as="geometry">
            <mxPoint x="530" y="410" as="sourcePoint" />
            <mxPoint x="596" y="576" as="targetPoint" />
            <Array as="points">
              <mxPoint x="520" y="540" />
            </Array>
          </mxGeometry>
        </mxCell>
        <mxCell id="wFCYlDDrSTioFFBtaSXR-93" value="&lt;b&gt;T1&lt;/b&gt;" style="ellipse;whiteSpace=wrap;html=1;" vertex="1" parent="1">
          <mxGeometry x="590" y="400" width="40" height="40" as="geometry" />
        </mxCell>
        <mxCell id="wFCYlDDrSTioFFBtaSXR-94" value="&lt;b&gt;T4&lt;/b&gt;" style="ellipse;whiteSpace=wrap;html=1;" vertex="1" parent="1">
          <mxGeometry x="460" y="765" width="40" height="40" as="geometry" />
        </mxCell>
        <mxCell id="wFCYlDDrSTioFFBtaSXR-95" value="&lt;font style=&quot;font-size: 18px;&quot;&gt;T1&lt;span style=&quot;white-space: pre;&quot;&gt;&#x9;&lt;/span&gt;T2&lt;span style=&quot;white-space: pre;&quot;&gt;&#x9;&lt;/span&gt;T3&lt;span style=&quot;white-space: pre;&quot;&gt;&#x9;&lt;/span&gt;T4&lt;span style=&quot;white-space: pre;&quot;&gt;&#x9;&lt;/span&gt;T5&lt;span style=&quot;white-space: pre;&quot;&gt;&#x9;&lt;/span&gt;&lt;/font&gt;" style="text;html=1;align=center;verticalAlign=middle;whiteSpace=wrap;rounded=0;" vertex="1" parent="1">
          <mxGeometry x="10" y="50" width="320" height="30" as="geometry" />
        </mxCell>
        <mxCell id="wFCYlDDrSTioFFBtaSXR-96" value="Rx" style="text;html=1;align=center;verticalAlign=middle;whiteSpace=wrap;rounded=0;perimeterSpacing=0;fillColor=none;" vertex="1" parent="1">
          <mxGeometry x="210" y="80" width="60" height="30" as="geometry" />
        </mxCell>
        <mxCell id="wFCYlDDrSTioFFBtaSXR-97" value="Rx" style="text;html=1;align=center;verticalAlign=middle;whiteSpace=wrap;rounded=0;perimeterSpacing=0;fillColor=none;" vertex="1" parent="1">
          <mxGeometry x="50" y="100" width="60" height="30" as="geometry" />
        </mxCell>
        <mxCell id="wFCYlDDrSTioFFBtaSXR-98" value="Wx" style="text;html=1;align=center;verticalAlign=middle;whiteSpace=wrap;rounded=0;perimeterSpacing=0;fillColor=none;" vertex="1" parent="1">
          <mxGeometry x="90" y="120" width="60" height="30" as="geometry" />
        </mxCell>
        <mxCell id="wFCYlDDrSTioFFBtaSXR-99" value="Ry" style="text;html=1;align=center;verticalAlign=middle;whiteSpace=wrap;rounded=0;perimeterSpacing=0;fillColor=none;" vertex="1" parent="1">
          <mxGeometry x="50" y="140" width="60" height="30" as="geometry" />
        </mxCell>
        <mxCell id="wFCYlDDrSTioFFBtaSXR-100" value="Ry" style="text;html=1;align=center;verticalAlign=middle;whiteSpace=wrap;rounded=0;perimeterSpacing=0;fillColor=none;" vertex="1" parent="1">
          <mxGeometry x="130" y="160" width="60" height="30" as="geometry" />
        </mxCell>
        <mxCell id="wFCYlDDrSTioFFBtaSXR-101" value="Wz" style="text;html=1;align=center;verticalAlign=middle;whiteSpace=wrap;rounded=0;perimeterSpacing=0;fillColor=none;" vertex="1" parent="1">
          <mxGeometry x="130" y="180" width="60" height="30" as="geometry" />
        </mxCell>
        <mxCell id="wFCYlDDrSTioFFBtaSXR-102" value="Rx" style="text;html=1;align=center;verticalAlign=middle;whiteSpace=wrap;rounded=0;perimeterSpacing=0;fillColor=none;" vertex="1" parent="1">
          <mxGeometry x="170" y="200" width="60" height="30" as="geometry" />
        </mxCell>
        <mxCell id="wFCYlDDrSTioFFBtaSXR-103" value="Wy" style="text;html=1;align=center;verticalAlign=middle;whiteSpace=wrap;rounded=0;perimeterSpacing=0;fillColor=none;" vertex="1" parent="1">
          <mxGeometry x="170" y="220" width="60" height="30" as="geometry" />
        </mxCell>
        <mxCell id="wFCYlDDrSTioFFBtaSXR-104" value="Rz" style="text;html=1;align=center;verticalAlign=middle;whiteSpace=wrap;rounded=0;perimeterSpacing=0;fillColor=none;" vertex="1" parent="1">
          <mxGeometry x="210" y="240" width="60" height="30" as="geometry" />
        </mxCell>
        <mxCell id="wFCYlDDrSTioFFBtaSXR-105" value="Wz" style="text;html=1;align=center;verticalAlign=middle;whiteSpace=wrap;rounded=0;perimeterSpacing=0;fillColor=none;" vertex="1" parent="1">
          <mxGeometry x="210" y="260" width="60" height="30" as="geometry" />
        </mxCell>
        <mxCell id="wFCYlDDrSTioFFBtaSXR-106" value="" style="endArrow=classic;html=1;rounded=0;entryX=0.333;entryY=0.333;entryDx=0;entryDy=0;entryPerimeter=0;" edge="1" parent="1" target="wFCYlDDrSTioFFBtaSXR-98">
          <mxGeometry width="50" height="50" relative="1" as="geometry">
            <mxPoint x="80" y="120" as="sourcePoint" />
            <mxPoint x="160" y="150" as="targetPoint" />
          </mxGeometry>
        </mxCell>
        <mxCell id="wFCYlDDrSTioFFBtaSXR-107" value="" style="endArrow=classic;html=1;rounded=0;entryX=0.667;entryY=0.333;entryDx=0;entryDy=0;entryPerimeter=0;exitX=0.333;exitY=0.667;exitDx=0;exitDy=0;exitPerimeter=0;" edge="1" parent="1" source="wFCYlDDrSTioFFBtaSXR-96" target="wFCYlDDrSTioFFBtaSXR-98">
          <mxGeometry width="50" height="50" relative="1" as="geometry">
            <mxPoint x="80" y="230" as="sourcePoint" />
            <mxPoint x="180" y="140" as="targetPoint" />
          </mxGeometry>
        </mxCell>
        <mxCell id="wFCYlDDrSTioFFBtaSXR-108" value="" style="endArrow=classic;html=1;rounded=0;" edge="1" parent="1">
          <mxGeometry width="50" height="50" relative="1" as="geometry">
            <mxPoint x="130" y="140" as="sourcePoint" />
            <mxPoint x="200" y="210" as="targetPoint" />
          </mxGeometry>
        </mxCell>
        <mxCell id="wFCYlDDrSTioFFBtaSXR-109" value="" style="endArrow=classic;html=1;rounded=0;exitX=0;exitY=0;exitDx=0;exitDy=0;entryX=0.333;entryY=0.333;entryDx=0;entryDy=0;entryPerimeter=0;" edge="1" parent="1" source="wFCYlDDrSTioFFBtaSXR-102" target="wFCYlDDrSTioFFBtaSXR-104">
          <mxGeometry width="50" height="50" relative="1" as="geometry">
            <mxPoint x="100" y="320" as="sourcePoint" />
            <mxPoint x="150" y="270" as="targetPoint" />
          </mxGeometry>
        </mxCell>
        <mxCell id="wFCYlDDrSTioFFBtaSXR-110" value="" style="endArrow=classic;html=1;rounded=0;exitX=0.667;exitY=0.667;exitDx=0;exitDy=0;exitPerimeter=0;endSize=6;entryX=0.333;entryY=0.667;entryDx=0;entryDy=0;entryPerimeter=0;" edge="1" parent="1" source="wFCYlDDrSTioFFBtaSXR-99" target="wFCYlDDrSTioFFBtaSXR-103">
          <mxGeometry width="50" height="50" relative="1" as="geometry">
            <mxPoint x="80" y="280" as="sourcePoint" />
            <mxPoint x="170" y="280" as="targetPoint" />
          </mxGeometry>
        </mxCell>
        <mxCell id="wFCYlDDrSTioFFBtaSXR-111" value="" style="endArrow=classic;html=1;rounded=0;" edge="1" parent="1">
          <mxGeometry width="50" height="50" relative="1" as="geometry">
            <mxPoint x="160" y="180" as="sourcePoint" />
            <mxPoint x="190" y="230" as="targetPoint" />
          </mxGeometry>
        </mxCell>
        <mxCell id="wFCYlDDrSTioFFBtaSXR-112" value="&lt;b&gt;T2&lt;/b&gt;" style="ellipse;whiteSpace=wrap;html=1;" vertex="1" parent="1">
          <mxGeometry x="360" y="840" width="40" height="40" as="geometry" />
        </mxCell>
        <mxCell id="wFCYlDDrSTioFFBtaSXR-113" value="&lt;b&gt;T3&lt;/b&gt;" style="ellipse;whiteSpace=wrap;html=1;" vertex="1" parent="1">
          <mxGeometry x="440" y="840" width="40" height="40" as="geometry" />
        </mxCell>
        <mxCell id="wFCYlDDrSTioFFBtaSXR-114" value="&lt;b&gt;T1&lt;/b&gt;" style="ellipse;whiteSpace=wrap;html=1;" vertex="1" parent="1">
          <mxGeometry x="340" y="765" width="40" height="40" as="geometry" />
        </mxCell>
        <mxCell id="wFCYlDDrSTioFFBtaSXR-115" value="&lt;b&gt;T5&lt;/b&gt;" style="ellipse;whiteSpace=wrap;html=1;" vertex="1" parent="1">
          <mxGeometry x="400" y="715" width="40" height="40" as="geometry" />
        </mxCell>
        <mxCell id="wFCYlDDrSTioFFBtaSXR-122" value="&lt;b&gt;T4&lt;/b&gt;" style="ellipse;whiteSpace=wrap;html=1;" vertex="1" parent="1">
          <mxGeometry x="640" y="900" width="40" height="40" as="geometry" />
        </mxCell>
        <mxCell id="wFCYlDDrSTioFFBtaSXR-123" value="&lt;b&gt;T2&lt;/b&gt;" style="ellipse;whiteSpace=wrap;html=1;" vertex="1" parent="1">
          <mxGeometry x="640" y="850" width="40" height="40" as="geometry" />
        </mxCell>
        <mxCell id="wFCYlDDrSTioFFBtaSXR-124" value="&lt;b&gt;T3&lt;/b&gt;" style="ellipse;whiteSpace=wrap;html=1;" vertex="1" parent="1">
          <mxGeometry x="640" y="700" width="40" height="40" as="geometry" />
        </mxCell>
        <mxCell id="wFCYlDDrSTioFFBtaSXR-130" value="&lt;b&gt;T5&lt;/b&gt;" style="ellipse;whiteSpace=wrap;html=1;" vertex="1" parent="1">
          <mxGeometry x="640" y="750" width="40" height="40" as="geometry" />
        </mxCell>
        <mxCell id="wFCYlDDrSTioFFBtaSXR-132" value="&lt;b&gt;T1&lt;/b&gt;" style="ellipse;whiteSpace=wrap;html=1;" vertex="1" parent="1">
          <mxGeometry x="640" y="800" width="40" height="40" as="geometry" />
        </mxCell>
        <mxCell id="wFCYlDDrSTioFFBtaSXR-133" value="We" style="text;html=1;align=center;verticalAlign=middle;whiteSpace=wrap;rounded=0;perimeterSpacing=0;fillColor=none;" vertex="1" parent="1">
          <mxGeometry x="210" y="950" width="60" height="30" as="geometry" />
        </mxCell>
        <mxCell id="wFCYlDDrSTioFFBtaSXR-135" value="" style="endArrow=classic;html=1;rounded=0;" edge="1" parent="1">
          <mxGeometry width="50" height="50" relative="1" as="geometry">
            <mxPoint x="80" y="850" as="sourcePoint" />
            <mxPoint x="110" y="860" as="targetPoint" />
          </mxGeometry>
        </mxCell>
        <mxCell id="wFCYlDDrSTioFFBtaSXR-136" value="" style="endArrow=classic;html=1;rounded=0;" edge="1" parent="1">
          <mxGeometry width="50" height="50" relative="1" as="geometry">
            <mxPoint x="110" y="810" as="sourcePoint" />
            <mxPoint x="80" y="820" as="targetPoint" />
          </mxGeometry>
        </mxCell>
        <mxCell id="wFCYlDDrSTioFFBtaSXR-137" value="" style="endArrow=classic;html=1;rounded=0;" edge="1" parent="1">
          <mxGeometry width="50" height="50" relative="1" as="geometry">
            <mxPoint x="120" y="870" as="sourcePoint" />
            <mxPoint x="190" y="920" as="targetPoint" />
          </mxGeometry>
        </mxCell>
        <mxCell id="wFCYlDDrSTioFFBtaSXR-138" value="" style="endArrow=classic;html=1;rounded=0;entryX=0.309;entryY=-0.115;entryDx=0;entryDy=0;entryPerimeter=0;" edge="1" parent="1" target="wFCYlDDrSTioFFBtaSXR-12">
          <mxGeometry width="50" height="50" relative="1" as="geometry">
            <mxPoint x="80" y="850" as="sourcePoint" />
            <mxPoint x="150" y="940" as="targetPoint" />
          </mxGeometry>
        </mxCell>
        <mxCell id="wFCYlDDrSTioFFBtaSXR-140" value="" style="endArrow=classic;html=1;rounded=0;entryX=0.5;entryY=1;entryDx=0;entryDy=0;exitX=0;exitY=0;exitDx=0;exitDy=0;" edge="1" parent="1" source="wFCYlDDrSTioFFBtaSXR-112" target="wFCYlDDrSTioFFBtaSXR-114">
          <mxGeometry width="50" height="50" relative="1" as="geometry">
            <mxPoint x="250" y="870" as="sourcePoint" />
            <mxPoint x="300" y="820" as="targetPoint" />
          </mxGeometry>
        </mxCell>
        <mxCell id="wFCYlDDrSTioFFBtaSXR-141" value="" style="endArrow=classic;html=1;rounded=0;entryX=0.5;entryY=0;entryDx=0;entryDy=0;exitX=1;exitY=1;exitDx=0;exitDy=0;" edge="1" parent="1" source="wFCYlDDrSTioFFBtaSXR-114" target="wFCYlDDrSTioFFBtaSXR-112">
          <mxGeometry width="50" height="50" relative="1" as="geometry">
            <mxPoint x="270" y="870" as="sourcePoint" />
            <mxPoint x="320" y="820" as="targetPoint" />
          </mxGeometry>
        </mxCell>
        <mxCell id="wFCYlDDrSTioFFBtaSXR-142" value="" style="endArrow=classic;html=1;rounded=0;exitX=1;exitY=0.5;exitDx=0;exitDy=0;entryX=0;entryY=0.5;entryDx=0;entryDy=0;" edge="1" parent="1" source="wFCYlDDrSTioFFBtaSXR-114" target="wFCYlDDrSTioFFBtaSXR-94">
          <mxGeometry width="50" height="50" relative="1" as="geometry">
            <mxPoint x="395" y="820" as="sourcePoint" />
            <mxPoint x="445" y="770" as="targetPoint" />
          </mxGeometry>
        </mxCell>
        <mxCell id="wFCYlDDrSTioFFBtaSXR-155" value="" style="endArrow=classic;html=1;rounded=0;" edge="1" parent="1">
          <mxGeometry width="50" height="50" relative="1" as="geometry">
            <mxPoint x="410" y="580" as="sourcePoint" />
            <mxPoint x="460" y="530" as="targetPoint" />
          </mxGeometry>
        </mxCell>
        <mxCell id="wFCYlDDrSTioFFBtaSXR-156" value="" style="endArrow=classic;html=1;rounded=0;exitX=1;exitY=0;exitDx=0;exitDy=0;entryX=0;entryY=1;entryDx=0;entryDy=0;" edge="1" parent="1" source="wFCYlDDrSTioFFBtaSXR-112" target="wFCYlDDrSTioFFBtaSXR-94">
          <mxGeometry width="50" height="50" relative="1" as="geometry">
            <mxPoint x="410" y="580" as="sourcePoint" />
            <mxPoint x="480" y="800" as="targetPoint" />
          </mxGeometry>
        </mxCell>
        <mxCell id="wFCYlDDrSTioFFBtaSXR-157" value="" style="endArrow=classic;html=1;rounded=0;entryX=0;entryY=0.5;entryDx=0;entryDy=0;exitX=0;exitY=0.5;exitDx=0;exitDy=0;strokeColor=#33FF33;strokeWidth=4;" edge="1" parent="1" source="wFCYlDDrSTioFFBtaSXR-132" target="wFCYlDDrSTioFFBtaSXR-123">
          <mxGeometry width="50" height="50" relative="1" as="geometry">
            <mxPoint x="370" y="740" as="sourcePoint" />
            <mxPoint x="420" y="690" as="targetPoint" />
            <Array as="points">
              <mxPoint x="610" y="850" />
            </Array>
          </mxGeometry>
        </mxCell>
        <mxCell id="wFCYlDDrSTioFFBtaSXR-158" value="" style="endArrow=classic;html=1;rounded=0;entryX=1;entryY=0.5;entryDx=0;entryDy=0;exitX=1;exitY=0.5;exitDx=0;exitDy=0;fillColor=#f8cecc;strokeColor=#b85450;strokeWidth=3;" edge="1" parent="1" source="wFCYlDDrSTioFFBtaSXR-123" target="wFCYlDDrSTioFFBtaSXR-132">
          <mxGeometry width="50" height="50" relative="1" as="geometry">
            <mxPoint x="615" y="1020" as="sourcePoint" />
            <mxPoint x="665" y="970" as="targetPoint" />
            <Array as="points">
              <mxPoint x="720" y="840" />
            </Array>
          </mxGeometry>
        </mxCell>
        <mxCell id="wFCYlDDrSTioFFBtaSXR-159" value="" style="endArrow=classic;html=1;rounded=0;entryX=0;entryY=0.5;entryDx=0;entryDy=0;exitX=0;exitY=0.5;exitDx=0;exitDy=0;" edge="1" parent="1" source="wFCYlDDrSTioFFBtaSXR-132" target="wFCYlDDrSTioFFBtaSXR-122">
          <mxGeometry width="50" height="50" relative="1" as="geometry">
            <mxPoint x="440" y="770" as="sourcePoint" />
            <mxPoint x="490" y="720" as="targetPoint" />
            <Array as="points">
              <mxPoint x="580" y="860" />
            </Array>
          </mxGeometry>
        </mxCell>
        <mxCell id="wFCYlDDrSTioFFBtaSXR-160" value="" style="endArrow=classic;html=1;rounded=0;entryX=1;entryY=0.5;entryDx=0;entryDy=0;exitX=1;exitY=0.5;exitDx=0;exitDy=0;" edge="1" parent="1" source="wFCYlDDrSTioFFBtaSXR-123" target="wFCYlDDrSTioFFBtaSXR-122">
          <mxGeometry width="50" height="50" relative="1" as="geometry">
            <mxPoint x="360" y="770" as="sourcePoint" />
            <mxPoint x="410" y="720" as="targetPoint" />
            <Array as="points">
              <mxPoint x="720" y="890" />
            </Array>
          </mxGeometry>
        </mxCell>
        <mxCell id="wFCYlDDrSTioFFBtaSXR-161" value="" style="endArrow=classic;html=1;rounded=0;" edge="1" parent="1">
          <mxGeometry width="50" height="50" relative="1" as="geometry">
            <mxPoint x="160" y="195" as="sourcePoint" />
            <mxPoint x="230" y="275" as="targetPoint" />
          </mxGeometry>
        </mxCell>
      </root>
    </mxGraphModel>
  </diagram>
</mxfile>
